# xmcd
#
# Track frame offsets: 
#        150
#        17254
#        33030
#        51517
#        69042
#        84985
#        100058
#        113875
#        124643
#        153830
#
# Disc length: 2305 seconds
#
# Revision: 0
# Processed by: cddbd v1.5.2PL0 Copyright (c) Steve Scherf et al.
# Submitted via: ExactAudioCopyFreeDBPlugin 1.0
#
DISCID=6608ff0a
DTITLE=Penny Buch - Thread Of Hope - Penny
DYEAR=2014
DGENRE=Gospel
TTITLE0=1. When Jesus Passes By
TTITLE1=2. Joy In My Heart
TTITLE2=3. He Will Carry You
TTITLE3=4. The Hand Of The Lord
TTITLE4=5. Thread Of Hope
TTITLE5=6. Consider The Lilies
TTITLE6=7. When He Was On The Cross
TTITLE7=8. What Kind Of Christian Are You?
TTITLE8=9. There Is A River
TTITLE9=10. Come Just As You Are
EXTD=
EXTT0=
EXTT1=
EXTT2=
EXTT3=
EXTT4=
EXTT5=
EXTT6=
EXTT7=
EXTT8=
EXTT9=
PLAYORDER=
